# xmcd
#
# Track frame offsets:
# 150
# 10532
# 24552
# 38345
# 53542
# 64397
# 77102
# 85525
# 101035
# 117945
# 132327
# 147757
# 161059
# 174480
#
# Disc length: 2548 seconds
#
#
# Revision: 0
# Processed by: cddbd v1.5.1PL2 Copyright (c) Steve Scherf et al.
# Submitted via: FreeRIP 2.945 
#
DISCID=a709f20e
DTITLE=Delley e Dorival - Viola sempre Viola
DYEAR=1900
DGENRE=sertanejo
TTITLE0=A chave do bem viver
TTITLE1=A perdiz do pantanal
TTITLE2=Antes do romper da aurora
TTITLE3=Esquema montado
TTITLE4=quero ver voce chorar
TTITLE5=Desespero do mar
TTITLE6=Coração é terra que ninguem anda
TTITLE7=Gato de armazém
TTITLE8=Pé de chinelo
TTITLE9=Maldita semente
TTITLE10=Pagode no rodeio
TTITLE11=Matando a saudade
TTITLE12=Grileiro de terra
TTITLE13=Amizade sincera
EXTD=
EXTT0=
EXTT1=
EXTT2=
EXTT3=
EXTT4=
EXTT5=
EXTT6=
EXTT7=
EXTT8=
EXTT9=
EXTT10=
EXTT11=
EXTT12=
EXTT13=
PLAYORDER=
